<?xml version="1.0" standalone="no"?>
<!DOCTYPE svg PUBLIC "-//W3C//DTD SVG 20010904//EN"
 "http://www.w3.org/TR/2001/REC-SVG-20010904/DTD/svg10.dtd">
<svg version="1.0" xmlns="http://www.w3.org/2000/svg"
 width="500.000000pt" height="500.000000pt" viewBox="0 0 500.000000 500.000000"
 preserveAspectRatio="xMidYMid meet">
<metadata>
Created by potrace 1.14, written by Peter Selinger 2001-2017
</metadata>
<g transform="translate(0.000000,500.000000) scale(0.100000,-0.100000)"
fill="#000000" stroke="none">
<path d="M2294 3800 c-58 -23 -70 -95 -25 -141 33 -33 69 -37 110 -13 26 15
30 15 69 -5 23 -12 42 -25 42 -29 0 -4 -19 -20 -41 -36 -35 -24 -44 -27 -65
-17 -37 16 -68 14 -97 -9 -50 -39 -42 -117 15 -146 62 -32 134 17 125 86 -4
33 -1 38 46 72 l51 38 124 -66 c85 -45 127 -63 134 -56 7 7 -11 21 -58 45 -38
20 -93 49 -123 65 l-53 30 101 76 c92 70 117 96 91 96 -5 0 -56 -36 -113 -80
l-105 -79 -56 30 c-31 17 -54 35 -50 40 12 19 -18 79 -46 94 -32 17 -45 18
-76 5z m81 -35 c30 -30 31 -54 4 -89 -14 -17 -30 -26 -50 -26 -65 0 -93 80
-43 119 35 27 59 26 89 -4z m15 -235 c11 -11 20 -31 20 -45 0 -31 -41 -75 -70
-75 -26 0 -70 43 -70 68 0 59 79 93 120 52z"/>
<path d="M1310 2830 c0 -217 2 -251 15 -257 25 -9 30 4 35 100 l5 91 69 -92
c44 -60 75 -92 87 -92 33 0 21 29 -46 121 -36 49 -68 95 -71 102 -2 7 25 31
66 56 67 42 86 70 59 86 -6 4 -44 -14 -85 -39 -41 -25 -77 -46 -79 -46 -3 0
-5 42 -5 94 0 108 -5 126 -31 126 -18 0 -19 -11 -19 -250z"/>
<path d="M2734 3067 c-2 -7 -3 -120 -2 -252 3 -232 4 -240 23 -240 18 0 20 8
25 99 l5 98 70 -96 c67 -91 96 -114 108 -82 3 8 -27 59 -69 115 l-74 101 69
44 c80 52 89 62 68 83 -14 14 -23 11 -89 -31 -41 -25 -78 -46 -81 -46 -4 0 -7
50 -7 110 0 104 -1 110 -20 110 -11 0 -23 -6 -26 -13z"/>
<path d="M2127 3054 c-4 -4 -7 -25 -7 -46 0 -35 2 -39 23 -36 19 3 22 9 22 43
0 28 -5 41 -15 43 -9 1 -19 0 -23 -4z"/>
<path d="M3544 3036 c-9 -35 4 -66 27 -66 17 0 20 6 17 42 -4 51 -33 67 -44
24z"/>
<path d="M2124 2927 c-2 -7 -3 -89 -2 -182 3 -162 4 -170 23 -170 19 0 20 8
23 174 2 133 -1 176 -10 183 -18 11 -28 10 -34 -5z"/>
<path d="M3552 2928 c-14 -14 -17 -325 -3 -347 5 -8 16 -11 25 -8 15 6 16 28
14 183 -3 175 -8 200 -36 172z"/>
<path d="M1942 2252 c-42 -120 -45 -132 -32 -132 6 0 27 16 47 35 20 19 40 35
44 35 4 0 9 -15 11 -32 2 -24 9 -34 23 -36 16 -3 18 -1 8 9 -7 7 -13 28 -13
46 0 41 -20 43 -67 7 -18 -14 -33 -23 -33 -21 0 2 13 40 30 85 16 44 26 84 21
86 -5 3 -22 -34 -39 -82z"/>
<path d="M2871 2318 c-42 -110 -62 -179 -59 -199 5 -27 6 -24 30 56 9 28 25
73 36 102 13 31 18 55 12 58 -6 4 -14 -4 -19 -17z"/>
<path d="M2277 2286 c-6 -16 2 -28 14 -20 12 7 11 34 0 34 -5 0 -11 -6 -14
-14z"/>
<path d="M2583 2240 c-43 -26 -54 -67 -25 -91 29 -22 28 -29 -4 -29 -14 0 -23
-4 -19 -10 3 -5 17 -10 31 -10 34 0 43 29 16 51 -27 21 -28 41 -4 61 34 30 45
32 37 8 -5 -16 -4 -21 6 -18 16 5 19 50 4 55 -5 1 -25 -6 -42 -17z"/>
<path d="M2325 2200 c-9 -27 -15 -59 -13 -71 3 -19 6 -17 28 17 14 21 40 47
59 56 27 13 31 19 18 24 -9 3 -29 -4 -48 -17 -30 -21 -31 -21 -20 -1 13 25 14
42 2 42 -5 0 -17 -22 -26 -50z"/>
<path d="M2122 2220 c-43 -41 -65 -110 -34 -110 5 0 25 11 44 24 34 22 35 23
47 5 6 -11 19 -19 29 -19 15 1 15 2 -2 15 -12 9 -19 26 -18 47 0 19 -6 37 -16
45 -23 17 -25 16 -50 -7z m39 -28 c-14 -25 -60 -66 -67 -59 -6 6 32 66 50 79
16 11 27 -2 17 -20z"/>
<path d="M2689 2209 c-31 -33 -45 -71 -34 -88 10 -17 21 -13 55 15 l31 27 15
-22 c8 -11 22 -21 31 -21 14 0 12 4 -6 21 -15 14 -21 28 -17 42 5 21 -18 57
-37 57 -5 0 -22 -14 -38 -31z m56 1 c7 -12 -62 -86 -72 -77 -7 8 44 87 57 87
5 0 12 -5 15 -10z"/>
<path d="M2921 2224 c-31 -22 -52 -73 -40 -96 14 -26 33 -22 68 13 34 34 42
83 15 93 -20 8 -16 9 -43 -10z m39 -23 c0 -24 -37 -71 -56 -71 -17 0 -17 5 -3
33 27 52 59 73 59 38z"/>
<path d="M3028 2197 c-10 -23 -18 -48 -18 -55 0 -17 15 -15 31 4 16 19 69 47
70 37 1 -5 1 -12 0 -17 -3 -15 10 -46 19 -46 11 0 1 71 -12 85 -6 6 -19 4 -38
-7 l-29 -17 6 30 c8 43 -9 35 -29 -14z"/>
<path d="M2251 2179 c-6 -18 -11 -41 -10 -53 0 -17 3 -16 14 9 21 50 27 75 17
75 -6 0 -15 -14 -21 -31z"/>
</g>
</svg>
